<mxfile host="app.diagrams.net" agent="Mozilla/5.0 (Macintosh; Intel Mac OS X 10_15_7) AppleWebKit/537.36 (KHTML, like Gecko) Chrome/136.0.0.0 Safari/537.36" version="27.0.5">
  <diagram name="Page-1" id="EoRCZjXruaiM21Xp3eFh">
    <mxGraphModel dx="1013" dy="678" grid="1" gridSize="10" guides="1" tooltips="1" connect="1" arrows="1" fold="1" page="1" pageScale="1" pageWidth="850" pageHeight="1100" math="0" shadow="0">
      <root>
        <mxCell id="0" />
        <mxCell id="1" parent="0" />
        <mxCell id="6a6vRDh7xb-nRs6Bljqo-4" style="edgeStyle=orthogonalEdgeStyle;rounded=0;orthogonalLoop=1;jettySize=auto;html=1;entryX=0.5;entryY=0;entryDx=0;entryDy=0;" edge="1" parent="1" source="6a6vRDh7xb-nRs6Bljqo-1" target="6a6vRDh7xb-nRs6Bljqo-2">
          <mxGeometry relative="1" as="geometry" />
        </mxCell>
        <mxCell id="6a6vRDh7xb-nRs6Bljqo-1" value="Start" style="html=1;dashed=0;whiteSpace=wrap;shape=mxgraph.dfd.start" vertex="1" parent="1">
          <mxGeometry x="385" y="90" width="80" height="30" as="geometry" />
        </mxCell>
        <mxCell id="6a6vRDh7xb-nRs6Bljqo-6" style="edgeStyle=orthogonalEdgeStyle;rounded=0;orthogonalLoop=1;jettySize=auto;html=1;" edge="1" parent="1" source="6a6vRDh7xb-nRs6Bljqo-2" target="6a6vRDh7xb-nRs6Bljqo-5">
          <mxGeometry relative="1" as="geometry" />
        </mxCell>
        <mxCell id="6a6vRDh7xb-nRs6Bljqo-2" value="Current&lt;div&gt;user data&lt;/div&gt;" style="shape=parallelogram;html=1;strokeWidth=2;perimeter=parallelogramPerimeter;whiteSpace=wrap;rounded=1;arcSize=12;size=0.23;" vertex="1" parent="1">
          <mxGeometry x="367" y="151" width="115" height="50" as="geometry" />
        </mxCell>
        <mxCell id="6a6vRDh7xb-nRs6Bljqo-8" style="edgeStyle=orthogonalEdgeStyle;rounded=0;orthogonalLoop=1;jettySize=auto;html=1;" edge="1" parent="1" source="6a6vRDh7xb-nRs6Bljqo-5" target="6a6vRDh7xb-nRs6Bljqo-7">
          <mxGeometry relative="1" as="geometry" />
        </mxCell>
        <mxCell id="6a6vRDh7xb-nRs6Bljqo-5" value="Match restrictions with user data" style="html=1;dashed=0;whiteSpace=wrap;" vertex="1" parent="1">
          <mxGeometry x="360" y="230" width="130" height="50" as="geometry" />
        </mxCell>
        <mxCell id="6a6vRDh7xb-nRs6Bljqo-9" value="Yes" style="edgeStyle=orthogonalEdgeStyle;rounded=0;orthogonalLoop=1;jettySize=auto;html=1;" edge="1" parent="1" source="6a6vRDh7xb-nRs6Bljqo-7">
          <mxGeometry relative="1" as="geometry">
            <mxPoint x="424.5" y="460" as="targetPoint" />
          </mxGeometry>
        </mxCell>
        <mxCell id="6a6vRDh7xb-nRs6Bljqo-11" style="edgeStyle=orthogonalEdgeStyle;rounded=0;orthogonalLoop=1;jettySize=auto;html=1;" edge="1" parent="1" source="6a6vRDh7xb-nRs6Bljqo-7">
          <mxGeometry relative="1" as="geometry">
            <mxPoint x="570" y="460" as="targetPoint" />
          </mxGeometry>
        </mxCell>
        <mxCell id="6a6vRDh7xb-nRs6Bljqo-7" value="User passes requirements?" style="strokeWidth=2;html=1;shape=mxgraph.flowchart.decision;whiteSpace=wrap;" vertex="1" parent="1">
          <mxGeometry x="369.5" y="310" width="110" height="110" as="geometry" />
        </mxCell>
        <mxCell id="6a6vRDh7xb-nRs6Bljqo-14" style="edgeStyle=orthogonalEdgeStyle;rounded=0;orthogonalLoop=1;jettySize=auto;html=1;" edge="1" parent="1" source="6a6vRDh7xb-nRs6Bljqo-10" target="6a6vRDh7xb-nRs6Bljqo-13">
          <mxGeometry relative="1" as="geometry" />
        </mxCell>
        <mxCell id="6a6vRDh7xb-nRs6Bljqo-10" value="Register user" style="html=1;dashed=0;whiteSpace=wrap;" vertex="1" parent="1">
          <mxGeometry x="370" y="460" width="110" height="50" as="geometry" />
        </mxCell>
        <mxCell id="6a6vRDh7xb-nRs6Bljqo-12" value="Show warn" style="html=1;dashed=0;whiteSpace=wrap;" vertex="1" parent="1">
          <mxGeometry x="515" y="460" width="110" height="50" as="geometry" />
        </mxCell>
        <mxCell id="6a6vRDh7xb-nRs6Bljqo-13" value="End" style="html=1;dashed=0;whiteSpace=wrap;shape=mxgraph.dfd.start" vertex="1" parent="1">
          <mxGeometry x="385" y="560" width="80" height="30" as="geometry" />
        </mxCell>
        <mxCell id="6a6vRDh7xb-nRs6Bljqo-15" style="edgeStyle=orthogonalEdgeStyle;rounded=0;orthogonalLoop=1;jettySize=auto;html=1;entryX=0.5;entryY=0.5;entryDx=0;entryDy=-15;entryPerimeter=0;" edge="1" parent="1" source="6a6vRDh7xb-nRs6Bljqo-12" target="6a6vRDh7xb-nRs6Bljqo-13">
          <mxGeometry relative="1" as="geometry">
            <Array as="points">
              <mxPoint x="570" y="530" />
              <mxPoint x="425" y="530" />
            </Array>
          </mxGeometry>
        </mxCell>
        <mxCell id="6a6vRDh7xb-nRs6Bljqo-16" value="&lt;div&gt;&lt;br&gt;&lt;/div&gt;&lt;div&gt;public.&lt;/div&gt;&lt;div&gt;tournaments&lt;/div&gt;" style="strokeWidth=2;html=1;shape=mxgraph.flowchart.database;whiteSpace=wrap;" vertex="1" parent="1">
          <mxGeometry x="230" y="455" width="90" height="60" as="geometry" />
        </mxCell>
        <mxCell id="6a6vRDh7xb-nRs6Bljqo-17" style="edgeStyle=orthogonalEdgeStyle;rounded=0;orthogonalLoop=1;jettySize=auto;html=1;entryX=1;entryY=0.5;entryDx=0;entryDy=0;entryPerimeter=0;" edge="1" parent="1" source="6a6vRDh7xb-nRs6Bljqo-10" target="6a6vRDh7xb-nRs6Bljqo-16">
          <mxGeometry relative="1" as="geometry" />
        </mxCell>
      </root>
    </mxGraphModel>
  </diagram>
</mxfile>
